<svg width="40" height="40" viewBox="0 0 40 40" fill="none" xmlns="http://www.w3.org/2000/svg">
<path d="M12.5 25C19.4043 25 25 19.4043 25 12.5C25 5.5957 19.4043 0 12.5 0C5.5957 0 0 5.5957 0 12.5C0 19.4043 5.5957 25 12.5 25ZM9.73633 15.2637C11.2598 16.7871 13.7354 16.7871 15.2588 15.2637C15.7178 14.8047 16.46 14.8047 16.9141 15.2637C17.3682 15.7227 17.373 16.4648 16.9141 16.9189C14.4727 19.3604 10.5176 19.3604 8.07617 16.9189C5.63477 14.4775 5.63477 10.5225 8.07617 8.08105C10.5176 5.63965 14.4727 5.63965 16.9141 8.08105C17.373 8.54004 17.373 9.28223 16.9141 9.73633C16.4551 10.1904 15.7129 10.1953 15.2588 9.73633C13.7354 8.21289 11.2598 8.21289 9.73633 9.73633C8.21289 11.2598 8.21289 13.7354 9.73633 15.2588V15.2637Z" fill="#FEF8F8"/>
</svg>
