<svg width="300" height="400" viewBox="0 0 379 442" fill="none" xmlns="http://www.w3.org/2000/svg">
<path d="M0 15C0 6.71574 6.71573 0 15 0H340C348.284 0 355 6.71573 355 15V427C355 435.284 348.284 442 340 442H15C6.71572 442 0 435.284 0 427V15Z" fill="#FFFBFB"/>
<g clip-path="url(#clip0_0_1)">
<path d="M332 101L290.533 360.571L145.854 417L21 360.571L33.6992 293.704H86.8283L81.645 322.341L157.062 353.659L243.948 322.341L256.129 253.851H40.1135L50.4802 196.012H266.69L273.493 158.839H57.4777L68.0387 101H332Z" fill="#081058"/>
<path d="M112.5 41.6V58.4C112.5 63.8 114.967 66.5 119.9 66.5C123.7 66.5 126.2 64.7 127.4 61.1C127.733 59.9667 128.133 59.2 128.6 58.8C129.133 58.4 129.967 58.2 131.1 58.2H151.5C152.1 58.2 152.6 58.4333 153 58.9C153.467 59.3 153.7 59.8 153.7 60.4C153.7 66.2 152.033 71.0667 148.7 75C142.567 82.3333 133 86 120 86C109.8 86 101.667 83.7667 95.6 79.3C89.5333 74.7667 86.5 67.8333 86.5 58.5V41.5C86.5 32.3667 89.6 25.5 95.8 20.9C102 16.3 110.067 14 120 14C133 14 142.567 17.6667 148.7 25C152.033 28.9333 153.7 33.8 153.7 39.6C153.7 40.2 153.467 40.7333 153 41.2C152.6 41.6 152.1 41.8 151.5 41.8H131.1C130.033 41.8 129.233 41.6 128.7 41.2C128.233 40.8 127.8 40.0333 127.4 38.9C126.133 35.3 123.633 33.5 119.9 33.5C114.967 33.5 112.5 36.2 112.5 41.6ZM161.407 37C161.407 30.2 164.207 24.6667 169.807 20.4C175.474 16.1333 182.874 14 192.007 14C201.207 14 208.707 16.2333 214.507 20.7C220.374 25.1667 223.307 29.8333 223.307 34.7C223.307 35.3 223.074 35.8333 222.607 36.3C222.207 36.7 221.74 36.9 221.207 36.9H201.207C199.674 36.9 198.274 36.3333 197.007 35.2C195.74 34.0667 194.04 33.5 191.907 33.5C188.707 33.5 187.107 34.4333 187.107 36.3C187.107 37.3 187.874 38.1333 189.407 38.8C191.007 39.4667 193.94 40.0667 198.207 40.6C208.14 41.8667 215.207 44.2 219.407 47.6C223.674 50.9333 225.807 56.0333 225.807 62.9C225.807 69.7 222.674 75.2667 216.407 79.6C210.207 83.8667 202.074 86 192.007 86C181.94 86 174.04 83.9333 168.307 79.8C162.574 75.6667 159.707 70.6333 159.707 64.7C159.707 64.1 159.907 63.6 160.307 63.2C160.774 62.7333 161.307 62.5 161.907 62.5H180.907C182.307 62.5 183.84 63.1667 185.507 64.5C187.24 65.8333 189.607 66.5 192.607 66.5C197.607 66.5 200.107 65.5667 200.107 63.7C200.107 62.5 199.207 61.6 197.407 61C195.607 60.3333 192.207 59.6667 187.207 59C170.007 56.7333 161.407 49.4 161.407 37ZM233.477 37C233.477 30.2 236.277 24.6667 241.877 20.4C247.544 16.1333 254.944 14 264.077 14C273.277 14 280.777 16.2333 286.577 20.7C292.444 25.1667 295.377 29.8333 295.377 34.7C295.377 35.3 295.144 35.8333 294.677 36.3C294.277 36.7 293.811 36.9 293.277 36.9H273.277C271.744 36.9 270.344 36.3333 269.077 35.2C267.811 34.0667 266.111 33.5 263.977 33.5C260.777 33.5 259.177 34.4333 259.177 36.3C259.177 37.3 259.944 38.1333 261.477 38.8C263.077 39.4667 266.011 40.0667 270.277 40.6C280.211 41.8667 287.277 44.2 291.477 47.6C295.744 50.9333 297.877 56.0333 297.877 62.9C297.877 69.7 294.744 75.2667 288.477 79.6C282.277 83.8667 274.144 86 264.077 86C254.011 86 246.111 83.9333 240.377 79.8C234.644 75.6667 231.777 70.6333 231.777 64.7C231.777 64.1 231.977 63.6 232.377 63.2C232.844 62.7333 233.377 62.5 233.977 62.5H252.977C254.377 62.5 255.911 63.1667 257.577 64.5C259.311 65.8333 261.677 66.5 264.677 66.5C269.677 66.5 272.177 65.5667 272.177 63.7C272.177 62.5 271.277 61.6 269.477 61C267.677 60.3333 264.277 59.6667 259.277 59C242.077 56.7333 233.477 49.4 233.477 37Z" fill="#081058"/>
</g>
<defs>
<clipPath id="clip0_0_1">
<rect width="367" height="413" fill="white" transform="translate(12 9)"/>
</clipPath>
</defs>
</svg>
