<svg width="373" height="433" viewBox="0 0 373 433" fill="none" xmlns="http://www.w3.org/2000/svg">
<g clip-path="url(#clip0_0_1)">
<path d="M373 67.6562V108.25C373 145.63 289.491 175.906 186.5 175.906C83.5087 175.906 0 145.63 0 108.25V67.6562C0 30.2762 83.5087 0 186.5 0C289.491 0 373 30.2762 373 67.6562ZM327.374 181.572C344.692 175.314 360.594 167.28 373 157.385V243.562C373 280.943 289.491 311.219 186.5 311.219C83.5087 311.219 0 280.943 0 243.562V157.385C12.4056 167.365 28.308 175.314 45.6259 181.572C83.0092 195.104 132.798 202.969 186.5 202.969C240.202 202.969 289.991 195.104 327.374 181.572ZM0 292.698C12.4056 302.677 28.308 310.627 45.6259 316.885C83.0092 330.416 132.798 338.281 186.5 338.281C240.202 338.281 289.991 330.416 327.374 316.885C344.692 310.627 360.594 302.593 373 292.698V365.344C373 402.724 289.491 433 186.5 433C83.5087 433 0 402.724 0 365.344V292.698Z" fill="#011C09"/>
</g>
<path d="M132.295 58.5455C131.784 54.2273 129.71 50.875 126.074 48.4886C122.438 46.1023 117.977 44.9091 112.693 44.9091C108.83 44.9091 105.449 45.5341 102.551 46.7841C99.6818 48.0341 97.4375 49.7528 95.8182 51.9403C94.2273 54.1278 93.4318 56.6136 93.4318 59.3977C93.4318 61.7273 93.9858 63.7301 95.0938 65.4062C96.2301 67.054 97.679 68.4318 99.4403 69.5398C101.202 70.6193 103.048 71.5142 104.98 72.2244C106.912 72.9062 108.688 73.4602 110.307 73.8864L119.17 76.2727C121.443 76.8693 123.972 77.6932 126.756 78.7443C129.568 79.7955 132.253 81.2301 134.81 83.0483C137.395 84.8381 139.526 87.1392 141.202 89.9517C142.878 92.7642 143.716 96.2159 143.716 100.307C143.716 105.023 142.48 109.284 140.009 113.091C137.565 116.898 133.986 119.923 129.27 122.168C124.582 124.412 118.886 125.534 112.182 125.534C105.932 125.534 100.52 124.526 95.946 122.509C91.4006 120.491 87.821 117.679 85.2074 114.071C82.6222 110.463 81.1591 106.273 80.8182 101.5H91.7273C92.0114 104.795 93.1193 107.523 95.0511 109.682C97.0114 111.812 99.483 113.403 102.466 114.455C105.477 115.477 108.716 115.989 112.182 115.989C116.216 115.989 119.838 115.335 123.048 114.028C126.259 112.693 128.801 110.847 130.676 108.489C132.551 106.102 133.489 103.318 133.489 100.136C133.489 97.2386 132.679 94.8807 131.06 93.0625C129.44 91.2443 127.31 89.767 124.668 88.6307C122.026 87.4943 119.17 86.5 116.102 85.6477L105.364 82.5795C98.5455 80.6193 93.1477 77.821 89.1705 74.1847C85.1932 70.5483 83.2045 65.7898 83.2045 59.9091C83.2045 55.0227 84.5256 50.7614 87.1676 47.125C89.8381 43.4602 93.4176 40.6193 97.9062 38.6023C102.423 36.5568 107.466 35.5341 113.034 35.5341C118.659 35.5341 123.659 36.5426 128.034 38.5597C132.409 40.5483 135.875 43.2756 138.432 46.7415C141.017 50.2074 142.381 54.142 142.523 58.5455H132.295ZM192.796 96.7273H204.387L214.103 109.511L216.66 112.92L231.148 132.182H219.558L210.012 119.398L207.626 116.159L192.796 96.7273ZM234.728 80.3636C234.728 89.5682 233.066 97.5227 229.742 104.227C226.418 110.932 221.859 116.102 216.063 119.739C210.268 123.375 203.648 125.193 196.205 125.193C188.762 125.193 182.143 123.375 176.347 119.739C170.552 116.102 165.992 110.932 162.668 104.227C159.344 97.5227 157.683 89.5682 157.683 80.3636C157.683 71.1591 159.344 63.2045 162.668 56.5C165.992 49.7955 170.552 44.625 176.347 40.9886C182.143 37.3523 188.762 35.5341 196.205 35.5341C203.648 35.5341 210.268 37.3523 216.063 40.9886C221.859 44.625 226.418 49.7955 229.742 56.5C233.066 63.2045 234.728 71.1591 234.728 80.3636ZM224.501 80.3636C224.501 72.8068 223.237 66.429 220.708 61.2301C218.208 56.0312 214.813 52.0966 210.523 49.4261C206.262 46.7557 201.489 45.4205 196.205 45.4205C190.921 45.4205 186.134 46.7557 181.844 49.4261C177.583 52.0966 174.188 56.0312 171.66 61.2301C169.16 66.429 167.91 72.8068 167.91 80.3636C167.91 87.9205 169.16 94.2983 171.66 99.4972C174.188 104.696 177.583 108.631 181.844 111.301C186.134 113.972 190.921 115.307 196.205 115.307C201.489 115.307 206.262 113.972 210.523 111.301C214.813 108.631 218.208 104.696 220.708 99.4972C223.237 94.2983 224.501 87.9205 224.501 80.3636ZM252.498 124V36.7273H263.066V114.625H303.634V124H252.498Z" fill="#E9BC1D"/>
<defs>
<clipPath id="clip0_0_1">
<rect width="373" height="433" fill="white"/>
</clipPath>
</defs>
</svg>
