<svg width="409" height="463" viewBox="0 0 409 463" fill="none" xmlns="http://www.w3.org/2000/svg">
<rect width="409" height="463" rx="20" fill="#FFFCFC"/>
<path d="M39 111L68.9013 414.918L203.072 455L338.099 414.918L368 111H39ZM303.057 209.209H145.582L149.095 247.141H299.544L287.892 361.091L204.014 381.823V382.054H203.072L118.508 361.091L113.368 302.887H154.236L157.234 332.143L203.072 343.277L249.08 332.143L254.221 284.382H111.226L100.259 172.582H306.827L303.057 209.209Z" fill="#B02222"/>
<mask id="mask0_0_1" style="mask-type:alpha" maskUnits="userSpaceOnUse" x="41" y="-26" width="327" height="179">
<rect x="41" y="-26" width="327" height="179" fill="#D9D9D9"/>
</mask>
<g mask="url(#mask0_0_1)">
<path d="M41 85.875V41.125H61.4375V56.0417H88.6875V41.125H109.125V85.875H88.6875V67.2292H61.4375V85.875H41ZM146.594 85.875V52.3125H122.75V41.125H190.875V52.3125H167.031V85.875H146.594ZM204.5 85.875V48.5833C204.5 46.4701 205.808 44.6975 208.424 43.2655C211.031 41.8385 214.265 41.125 218.125 41.125H279.438C283.298 41.125 286.532 41.8385 289.139 43.2655C291.755 44.6975 293.062 46.4701 293.062 48.5833V85.875H272.625V52.3125H259V78.4167H238.562V52.3125H224.938V85.875H204.5ZM313.5 85.875V41.125H333.938V74.6875H368V85.875H313.5Z" fill="#B02222"/>
</g>
</svg>
