<svg width="438" height="503" viewBox="0 0 438 503" fill="none" xmlns="http://www.w3.org/2000/svg">
<rect width="438" height="503" fill="#FFFCFC"/>
<path d="M15 31.4375C6.71572 31.4375 0 38.1532 0 46.4375V456.563C0 464.847 6.71573 471.562 15 471.562H423C431.284 471.562 438 464.847 438 456.562V46.4375C438 38.1532 431.284 31.4375 423 31.4375H15ZM238.358 374.696C238.358 417.529 213.329 437.079 176.862 437.079C150.352 437.079 132.83 426.013 121.902 410.891C117.404 404.667 120.059 396.233 126.625 392.251L135.343 386.964C142.595 382.566 151.501 385.495 157.087 391.878C161.454 396.869 166.88 400.14 175.102 400.14C188.594 400.14 197.198 394.835 197.198 374.106V248.522C197.198 240.237 203.913 233.522 212.198 233.522H223.358C231.642 233.522 238.358 240.237 238.358 248.522V374.696ZM335.735 437.079C304.177 437.079 281.815 424.627 268.206 406.796C263.395 400.491 266.097 391.732 272.958 387.752L281.583 382.749C288.64 378.656 297.441 381.199 303.046 387.127C310.738 395.261 320.655 400.533 334.855 400.533C351.867 400.533 362.817 391.986 362.817 380.099C362.817 365.952 351.671 360.942 332.802 352.591L322.536 348.17C292.815 335.497 273.163 319.484 273.163 285.787C273.163 254.742 296.725 231.164 333.388 231.164C354.804 231.164 371.257 237.268 383.919 252.587C388.978 258.707 386.64 267.626 379.962 271.922L373.244 276.244C365.956 280.933 356.721 277.798 349.906 272.446C345.268 268.804 339.945 267.219 333.291 267.219C321.265 267.219 313.639 274.882 313.639 284.902C313.639 297.281 321.265 302.291 338.961 310.052L349.227 314.473C384.228 329.504 403.879 344.928 403.879 379.51C403.879 416.645 374.744 437.079 335.735 437.079Z" fill="#07756E"/>
</svg>
