<svg width="668" height="452" viewBox="0 0 668 452" fill="none" xmlns="http://www.w3.org/2000/svg">
<rect width="668" height="452" rx="15" fill="#1394BD"/>
<path d="M334.751 397.484C332.907 397.484 331.063 396.999 329.394 396.191L312.534 386.973C309.988 385.679 311.217 385.194 312.095 384.951C315.432 383.9 316.135 383.657 319.735 381.717C320.086 381.555 320.613 381.636 320.964 381.798L333.961 388.913C334.4 389.156 335.102 389.156 335.541 388.913L386.297 361.906C386.736 361.664 387.087 361.179 387.087 360.612V306.679C387.087 306.113 386.824 305.628 386.297 305.386L335.541 278.459C335.102 278.217 334.487 278.217 333.961 278.459L283.205 305.386C282.678 305.628 282.415 306.194 282.415 306.679V360.612C282.415 361.098 282.766 361.583 283.205 361.825L297.079 369.184C304.631 372.661 309.285 368.537 309.285 364.494V311.207C309.285 310.48 309.9 309.833 310.778 309.833H317.188C317.979 309.833 318.681 310.399 318.681 311.207V364.494C318.681 373.793 313.237 379.048 303.665 379.048C300.768 379.048 298.397 379.048 291.986 376.138L278.639 369.103C275.39 367.324 273.282 364.089 273.282 360.612V306.679C273.282 303.202 275.302 299.887 278.639 298.189L329.394 271.182C332.643 269.484 336.858 269.484 340.02 271.182L390.775 298.189C394.024 299.968 396.132 303.202 396.132 306.679V360.612C396.132 364.089 394.112 367.405 390.775 369.103L340.02 396.11C338.527 396.999 336.683 397.484 334.751 397.484ZM375.759 344.279C375.759 334.171 368.383 331.503 352.753 329.562C336.946 327.622 335.366 326.652 335.366 323.255C335.366 320.425 336.683 316.706 348.362 316.706C358.812 316.706 362.675 318.808 364.256 325.277C364.432 325.924 364.958 326.328 365.661 326.328H372.247C372.686 326.328 373.037 326.166 373.301 325.924C373.564 325.6 373.74 325.277 373.652 324.873C372.598 313.714 364.607 308.539 348.362 308.539C333.873 308.539 325.267 314.199 325.267 323.579C325.267 333.848 333.873 336.597 347.747 337.891C364.344 339.427 365.661 341.611 365.661 344.602C365.661 349.858 361.095 352.041 350.382 352.041C336.946 352.041 333.961 348.969 332.995 342.823C332.907 342.177 332.292 341.691 331.502 341.691H324.916C324.126 341.691 323.423 342.257 323.423 343.066C323.423 350.909 328.077 360.289 350.294 360.289C366.539 360.289 375.759 354.467 375.759 344.279ZM423.617 303.768C423.617 308.701 419.227 312.744 413.87 312.744C408.513 312.744 404.123 308.701 404.123 303.768C404.123 298.674 408.689 294.793 413.87 294.793C419.139 294.712 423.617 298.674 423.617 303.768ZM422.037 303.768C422.037 299.564 418.348 296.248 413.782 296.248C409.304 296.248 405.616 299.564 405.616 303.768C405.616 307.973 409.304 311.369 413.782 311.369C418.348 311.288 422.037 307.892 422.037 303.768ZM418.085 308.782H415.802C415.714 308.296 415.363 305.709 415.363 305.628C415.187 305.062 415.012 304.739 414.221 304.739H412.289V308.782H410.182V298.674H413.958C415.275 298.674 417.822 298.674 417.822 301.343C417.822 303.202 416.504 303.607 415.714 303.849C417.207 303.93 417.295 304.82 417.558 306.113C417.646 306.922 417.822 308.296 418.085 308.782ZM415.626 301.666C415.626 300.291 414.573 300.291 414.046 300.291H412.289V303.121H413.958C415.363 303.121 415.626 302.232 415.626 301.666ZM177.567 186.441C177.567 184.258 176.337 182.318 174.318 181.266L120.488 152.723C119.61 152.238 118.557 151.995 117.503 151.914H116.976C115.922 151.914 114.956 152.238 113.99 152.723L60.2491 181.266C58.2294 182.318 57 184.339 57 186.441L57.0878 263.258C57.0878 264.309 57.7025 265.279 58.6684 265.845C59.6344 266.411 60.8637 266.411 61.9175 265.845L93.8813 248.946C95.9009 247.814 97.1303 245.873 97.1303 243.771V207.869C97.1303 205.767 98.3597 203.745 100.379 202.694L113.99 195.498C115.044 194.932 116.098 194.689 117.239 194.689C118.381 194.689 119.523 194.932 120.488 195.498L134.099 202.694C136.119 203.745 137.348 205.767 137.348 207.869V243.771C137.348 245.873 138.578 247.895 140.597 248.946L172.561 265.845C173.527 266.411 174.844 266.411 175.81 265.845C176.776 265.36 177.391 264.309 177.391 263.258L177.567 186.441ZM471.914 102.59V245.226C471.914 247.329 470.685 249.35 468.665 250.401L414.836 279.025C412.816 280.077 410.358 280.077 408.338 279.025L354.509 250.401C352.489 249.35 351.26 247.329 351.26 245.226V187.978C351.26 185.875 352.489 183.854 354.509 182.803L408.338 154.179C410.358 153.127 412.816 153.127 414.836 154.179L428.271 161.294C429.764 162.103 431.696 161.052 431.696 159.515V83.5074C431.696 81.2434 434.33 79.7879 436.526 80.9199L468.577 97.4152C470.597 98.3855 471.914 100.407 471.914 102.59ZM431.52 206.818C431.52 206.252 431.169 205.767 430.73 205.524L412.289 195.659C411.763 195.417 411.148 195.417 410.621 195.659L392.18 205.524C391.653 205.767 391.39 206.252 391.39 206.818V226.467C391.39 227.033 391.741 227.518 392.18 227.761L410.621 237.545C411.148 237.787 411.763 237.787 412.202 237.545L430.642 227.761C431.169 227.518 431.432 227.033 431.432 226.467V206.818H431.52ZM615.751 206.252C617.771 205.201 619 203.179 619 201.077V187.25C619 185.148 617.771 183.126 615.751 182.075L562.273 153.451C560.253 152.4 557.795 152.4 555.775 153.451L501.946 182.075C499.926 183.126 498.697 185.148 498.697 187.25V244.498C498.697 246.682 499.926 248.622 501.946 249.673L555.424 277.732C557.356 278.783 559.814 278.783 561.834 277.732L594.149 261.155C596.344 260.023 596.344 257.112 594.149 255.98L539.969 227.356C538.915 226.79 538.3 225.82 538.3 224.769V206.818C538.3 205.767 538.915 204.796 539.969 204.23L556.829 195.255C557.795 194.689 559.112 194.689 560.078 195.255L576.938 204.23C577.904 204.796 578.606 205.767 578.606 206.818V220.888C578.606 223.152 581.328 224.607 583.524 223.475L615.751 206.252ZM547.872 209.082C547.521 209.325 547.257 209.648 547.257 210.052V221.049C547.257 221.454 547.521 221.858 547.872 222.02L558.234 227.518C558.585 227.761 559.112 227.761 559.463 227.518L569.825 222.02C570.176 221.777 570.44 221.454 570.44 221.049V210.052C570.44 209.648 570.176 209.244 569.825 209.082L559.463 203.584C559.112 203.341 558.585 203.341 558.234 203.584L547.872 209.082ZM324.652 244.256V187.331C324.652 185.229 323.247 183.207 321.228 182.156L267.574 153.693C265.73 152.723 263.184 152.561 261.076 153.693L207.423 182.156C205.403 183.207 203.998 185.148 203.998 187.331V244.256C203.998 246.52 205.667 248.461 207.511 249.431L261.252 277.893C263.359 279.025 265.818 278.945 267.75 277.893L321.316 249.431C322.896 248.622 324.038 247.248 324.477 245.63C324.565 245.226 324.652 244.741 324.652 244.256ZM259.408 143.263L258.705 143.667H259.671L259.408 143.263ZM326.321 248.541L325.97 247.975V248.703L326.321 248.541Z" fill="#012222"/>
</svg>
