<svg width="363" height="426" viewBox="0 0 363 426" fill="none" xmlns="http://www.w3.org/2000/svg">
<g clip-path="url(#clip0_1_2)">
<path d="M356.356 166.822C350.117 141.113 338.287 121.726 313.088 121.726H280.596V161.164C280.596 191.783 255.315 217.576 226.47 217.576H139.933C116.273 217.576 96.665 238.377 96.665 262.755V347.456C96.665 371.585 117.084 385.73 139.933 392.636C167.32 400.873 193.654 402.37 226.47 392.636C248.266 386.146 269.738 373.083 269.738 347.456V313.593H183.283V302.277H313.088C338.287 302.277 347.605 284.222 356.356 257.181C365.431 229.308 365.026 202.516 356.356 166.822V166.822ZM231.899 336.141C240.893 336.141 248.185 343.712 248.185 353.031C248.185 362.433 240.893 370.004 231.899 370.004C222.986 370.004 215.612 362.35 215.612 353.031C215.693 343.629 222.986 336.141 231.899 336.141ZM135.963 206.427H222.5C246.565 206.427 265.768 186.042 265.768 161.248V76.4637C265.768 52.3348 245.997 34.2797 222.5 30.2027C193.492 25.2938 161.973 25.5434 135.963 30.2859C99.3388 36.9422 92.6946 50.8371 92.6946 76.5469V110.411H179.312V121.726H60.2029C35.0036 121.726 12.9643 137.285 6.077 166.822C-1.86362 200.686 -2.18773 221.82 6.077 257.181C12.235 283.473 26.9009 302.277 52.1002 302.277H81.837V261.674C81.837 232.303 106.55 206.427 135.963 206.427ZM130.534 87.7793C121.54 87.7793 114.248 80.2078 114.248 70.8891C114.329 61.4871 121.54 53.9156 130.534 53.9156C139.447 53.9156 146.821 61.5703 146.821 70.8891C146.821 80.2078 139.528 87.7793 130.534 87.7793V87.7793Z" fill="#088705"/>
</g>
<defs>
<clipPath id="clip0_1_2">
<rect width="363" height="426" fill="white"/>
</clipPath>
</defs>
</svg>
